PathFileType	4	(X/Y/Z)	4_coords_data.trc
DataRate	CameraRate	NumFrames	NumMarkers	Units	OrigDataRate	OrigDataStartFrame	OrigNumFrames
30.0	30.0	7	21	m	30.0	10	49
Frame#	Time	THUMB_TIP	THUMB_IP	THUMB_MCP	THUMB_CMC	INDEX_TIP	INDEX_DIP	INDEX_PIP	INDEX_MCP	MIDDLE_TIP	MIDDLE_DIP	MIDDLE_PIP	MIDDLE_MCP	RING_TIP	RING_DIP	RING_PIP	RING_MCP	PINKY_TIP	PINKY_DIP	PINKY_PIP	PINKY_MCP	WRIST
X1	Y1	Z1	X2	Y2	Z2	X3	Y3	Z3	X4	Y4	Z4	X5	Y5	Z5	X6	Y6	Z6	X7	Y7	Z7	X8	Y8	Z8	X9	Y9	Z9	X10	Y10	Z10	X11	Y11	Z11	X12	Y12	Z12	X13	Y13	Z13	X14	Y14	Z14	X15	Y15	Z15	X16	Y16	Z16	X17	Y17	Z17	X18	Y18	Z18	X19	Y19	Z19	X20	Y20	Z20	X21	Y21	Z21
8	0.2999999999999987	0.5377781096383386	-0.030507159453208588	-0.1364536458821906	0.5229317060907782	-0.02316369246480865	-0.12052700799802718	0.4933514914659388	-0.015929410621629003	-0.1140852637496208	0.46965136440157795	-0.029639290357407422	-0.0788683193227736	0.5677451701304674	0.05180594310526987	-0.16019000212903511	0.5540346402743654	0.04409992061855195	-0.15121010299267867	0.5359588336168646	0.03447326820238106	-0.1366292041884597	0.5067108466619474	0.021730792422577916	-0.10841891060462522	0.512194810279957	-0.011919113949952598	-0.11751079043675433	0.5277017415825532	-0.010607542774493828	-0.1267744216161712	0.5466803342591211	0.010431781235282767	-0.11995024289426176	0.521461418342388	0.022305576652267067	-0.08503366827159381	0.5270806982988705	-0.024905932731296265	-0.10789421177604558	0.5436923047217671	-0.02294303771863515	-0.11461742345053955	0.5596584803848096	-0.006254844961489425	-0.10530262682381603	0.5342294738740379	0.0032658550881575765	-0.07534527826891585	0.5965384354330876	0.020568124181349456	-0.07503600945149363	0.5829215161813662	0.010229276217332717	-0.07420671284047681	0.5651199575434033	-0.0006808402646449885	-0.07199630848632654	0.5342883723527949	-0.018959513609360323	-0.06797301302222503	0.462283081001861	-0.023011742144276925	-0.051989820119430985
9	0.33333333333333187	0.537703643945931	-0.03075460432836241	-0.1365539158688645	0.5228660763060067	-0.023385873434671023	-0.12063071293895655	0.4933154374619253	-0.01609033658572656	-0.11412264978680725	0.4696097943509585	-0.029690672141775898	-0.07886696432391577	0.5677854252186202	0.051387019627135544	-0.1604272755661853	0.5540622416195412	0.04373902066379376	-0.15141715105191306	0.5359860491261255	0.03417068942873347	-0.13679839134675492	0.5067279387156527	0.02156311325164706	-0.10853802878454505	0.5121904329532947	-0.012071683314262449	-0.11767126121972526	0.5277285119345038	-0.01088168647034704	-0.12689904584471434	0.546743266542107	0.010102012790326964	-0.12000462617731472	0.5215060637225278	0.02215316372127818	-0.08516210508479244	0.5270226822221811	-0.025087877129166936	-0.10800354272057289	0.5436434200211897	-0.023231502925583958	-0.11473443789379295	0.5596326611550261	-0.006554248249172945	-0.10543963701253889	0.5342532038438941	0.0030824945933715098	-0.07547737461499782	0.5965881743053212	0.020231047714361794	-0.075391340697045	0.5829551519779458	0.009916747150717664	-0.0745219120892266	0.5651344768640588	-0.000950058710562085	-0.072252972279856	0.5342725650112042	-0.019146089646269404	-0.06809000387096559	0.462283081001861	-0.023011742144276925	-0.051989820119430985
10	0.3666666666666651	0.5376838306491691	-0.030979999282575	-0.13659346759425683	0.5228456588967108	-0.023577942301428734	-0.12068629275104809	0.49331158621892357	-0.01624390604764081	-0.11414637965595964	0.4695820577982016	-0.029732879543624247	-0.07886398921887616	0.5678416496362589	0.05101210266660905	-0.16060863366684358	0.5541060997378694	0.04341622613682028	-0.15157329589047586	0.5360297165546647	0.03390556275967749	-0.13691718842155243	0.5067413241979114	0.021437501665678593	-0.10862631321923333	0.5121833462690836	-0.01211380897509795	-0.11779193843291608	0.5277707030655371	-0.011086040124306695	-0.12695588950706516	0.5468429391355821	0.009823821067109995	-0.1199962152155365	0.5215677888068927	0.02202062168157881	-0.08523196991043824	0.526981693447156	-0.02524267000331948	-0.10806718094106826	0.5436070207268621	-0.023424099348255734	-0.11479706159492864	0.5596080485035398	-0.006745852081788906	-0.10552435124635312	0.5342799630179467	0.0029530876751250323	-0.07553869655571388	0.5965960294770483	0.0200227370899122	-0.07565964842061595	0.5829583147689436	0.009717628138524392	-0.07475550958151517	0.565133762263981	-0.0011335775890914945	-0.07244278796947673	0.5342631584468572	-0.019288279256296725	-0.0681653964347953	0.4622830810018608	-0.023011742144276925	-0.051989820119430985
11	0.39999999999999825	0.5376899846700798	-0.031107330813891387	-0.1366130991960371	0.5228488282439905	-0.02368634228742872	-0.12071753361231324	0.4933212332475094	-0.016345571132545533	-0.11415596271995626	0.46956561135983277	-0.02975832404084444	-0.07886207531504358	0.5678702385041632	0.05072143516564265	-0.1607349580885747	0.5541238629616702	0.043171640076056006	-0.15167748859925234	0.5360435888330923	0.03371662968640465	-0.13699020501898934	0.5067240275881778	0.02141142232344939	-0.1086603392557991	0.5122739692392564	-0.01221647540686055	-0.11792596887569018	0.5278910194774705	-0.011254026887680735	-0.12704635454215335	0.5469501542248194	0.00962863966125671	-0.11997011468695534	0.5216372937761818	0.021906760172365924	-0.08526197769254878	0.5269458997484477	-0.02531389251720828	-0.10810663339221677	0.5435663789969806	-0.023517061801493044	-0.11485430476300468	0.5595647172638023	-0.006818516386339679	-0.10561354003716011	0.5342850279238365	0.002891728763158685	-0.07559072737726003	0.596549109197381	0.01997213559004707	-0.07592435162453975	0.5829193572700286	0.009660551181765786	-0.07497509434133232	0.5651047244293484	-0.001195215096475244	-0.07260798338829888	0.5342570448545847	-0.019359787541007423	-0.06820884440890257	0.4622830810018608	-0.023011742144276925	-0.051989820119430985
12	0.43333333333333146	0.5376719697237171	-0.031141002163638243	-0.13666957165447907	0.5228215479823398	-0.02373034930238549	-0.12077783800854741	0.4933025226148785	-0.01639332564002771	-0.11417365561152232	0.46954517044514443	-0.02976592273913181	-0.07886569808480798	0.5678329156711972	0.05052085813461027	-0.1608668001172937	0.5540779036758678	0.04301118789538161	-0.15178910779455057	0.5360007261763667	0.03361090441162451	-0.137062935274967	0.5066771421283754	0.021427066118251292	-0.10868481699659421	0.5122553186632244	-0.012201848972634544	-0.11798755434453245	0.5279052928046585	-0.011254779203297094	-0.12705294833621578	0.5469795250759084	0.009580825303212803	-0.11987933013403096	0.5216182955613555	0.021949152876110656	-0.08523859642991222	0.5269155674542463	-0.025320966667557565	-0.10817626819558723	0.5435299166468972	-0.02351338207279796	-0.11493615272399804	0.5594951419363373	-0.006765849027699167	-0.1057268260732191	0.5342636037080639	0.002898376714505435	-0.07564871021735309	0.5964407286019111	0.020104726689183172	-0.07621665269954059	0.5828361639257669	0.009764399637483323	-0.07521992985115727	0.5650481725534291	-0.0011215576782019898	-0.07279190282109466	0.5342463926818655	-0.019328586474071097	-0.06824900614935125	0.4622830810018609	-0.023011742144276925	-0.051989820119430985
13	0.4666666666666647	0.537656424477111	-0.03112262469076954	-0.13672298817586398	0.5227967480233607	-0.023711382231843103	-0.12084018297952459	0.4932810120137153	-0.01640028902897539	-0.11419268390183446	0.4695245449586216	-0.029749661085343382	-0.07887534341927677	0.5677250290117891	0.05045510242704965	-0.16099109551310276	0.5539728917562403	0.04296034081998945	-0.15189674180556084	0.5359092802118556	0.03359672176082007	-0.13713061810675858	0.5065975552281856	0.021463273141354877	-0.1087186787663949	0.512185588765544	-0.012142917665814545	-0.11805079981910077	0.5278616004960641	-0.011183905360474533	-0.1270698325622947	0.5469662534560263	0.009592170789311405	-0.1198050927116392	0.5215642635050137	0.02203373011468801	-0.08522049456330455	0.5268563837435774	-0.025288736174082338	-0.10824542956718192	0.5434626219181572	-0.02340099568014864	-0.11500333527210932	0.5593955276358802	-0.00661068488769645	-0.10581595491190782	0.534207703639682	0.003016262296057115	-0.07568928492902116	0.5962819850575113	0.020390133491182127	-0.07649653835444181	0.5827098950722589	0.010011615801444607	-0.07545502791473724	0.5649635754015379	-0.0009302543427491816	-0.07297397271741063	0.5342314266740111	-0.01921901766583667	-0.06828999772801625	0.4622830810018609	-0.023011742144276925	-0.051989820119430985
14	0.4999999999999978	0.5376231054122689	-0.03108747397439493	-0.1367815438455986	0.5227466636321122	-0.023686705728687252	-0.1209095524981042	0.4932376612695125	-0.01638810420140624	-0.11421857384696132	0.4694967768947146	-0.0297296703527401	-0.07888780790943795	0.5676017826941705	0.050452694948831645	-0.16107351423714394	0.5538535423470893	0.04296577353080744	-0.15196681917036936	0.5358013751811455	0.033629348683492655	-0.13716951317626125	0.5064941244059198	0.021553881490868565	-0.10872827132436763	0.5121561361643581	-0.01212771606170282	-0.11811530600926601	0.5278494874942286	-0.011118234496669044	-0.12709860557051367	0.5469156594577914	0.009652079003161229	-0.11971722942682428	0.5214892748129437	0.022164781472260753	-0.08517625141791368	0.526828011164089	-0.025219443323298396	-0.10831587823626693	0.5434265791913464	-0.023263285212590246	-0.11507316947539681	0.5593078726056557	-0.0064062669396236505	-0.1059186387155226	0.5341543201391248	0.0031239817590915653	-0.07573264871926583	0.5961136905775143	0.02071629594729618	-0.07675371766312561	0.5825774601665819	0.01029523236296026	-0.07567117434603726	0.5648728961064654	-0.0007015517101739421	-0.07313519909180177	0.534218875488753	-0.019085461201952425	-0.06831375296361941	0.4622830810018609	-0.023011742144276925	-0.051989820119430985
